<svg width="128" height="128" viewBox="0 0 128 128" fill="none" xmlns="http://www.w3.org/2000/svg">
<rect width="128" height="128" rx="20" fill="#689775"/>
<path d="M48.9414 52.5H60.0414C59.8914 42.45 59.5914 35.1 59.1414 24C57.3414 27.75 51.0414 36.3 48.9414 52.5ZM60.1914 55.2H48.7914C48.1914 64.2 48.4914 74.1 48.1914 84C47.7414 94.5 46.9914 103.2 44.8914 117H30.1914C34.9914 111.15 40.0914 101.55 41.4414 81.6C42.4914 73.2 41.2914 57.15 48.4914 38.85C50.8914 32.55 56.8914 22.95 59.1414 19.05C58.9914 16.5 58.9914 14.7 58.8414 11.85H69.3414C67.0914 49.65 67.8414 83.4 69.1914 117H58.6914C60.0414 89.85 60.3414 71.7 60.1914 55.2Z" fill="#C84A3B"/>
<path d="M79.0586 76.5H67.9586C68.1086 86.55 68.4086 93.9 68.8586 105C70.6586 101.25 76.9586 92.7 79.0586 76.5ZM67.8086 73.8H79.2086C79.8086 64.8 79.5086 54.9 79.8086 45C80.2586 34.5 81.0086 25.8 83.1086 12H97.8086C93.0086 17.85 87.9086 27.45 86.5586 47.4C85.5086 55.8 86.7086 71.85 79.5086 90.15C77.1086 96.45 71.1086 106.05 68.8586 109.95C69.0086 112.5 69.0086 114.3 69.1586 117.15H58.6586C60.9086 79.35 60.1586 45.6 58.8086 12H69.3086C67.9586 39.15 67.6586 57.3 67.8086 73.8Z" fill="#C84A3B"/>
</svg>
