<svg width="362" height="750" viewBox="0 0 362 750" fill="none" xmlns="http://www.w3.org/2000/svg">
<path d="M355.954 118.596H355.267V44.4896C355.267 19.9185 335.888 0 311.983 0H49.6218C25.7167 0 6.33791 19.9185 6.33791 44.4896V118.596H5.65073C2.52985 118.596 -3.05176e-05 121.196 -3.05176e-05 124.404V175.666C-3.05176e-05 178.874 2.52985 181.474 5.65073 181.474H6.33791V193.701H5.65073C2.52985 193.701 -3.05176e-05 196.301 -3.05176e-05 199.509V250.771C-3.05176e-05 253.979 2.52985 256.579 5.65073 256.579H6.33791V705.51C6.33791 730.081 25.7167 750 49.6218 750H311.983C335.888 750 355.267 730.081 355.267 705.51V212.913H355.954C359.075 212.913 361.605 210.313 361.605 207.105V124.404C361.605 121.196 359.075 118.596 355.954 118.596Z" fill="#333343"/>
</svg>
